<?xml version="1.0" encoding="utf-8"?>
<svg viewBox="200 150 250 350" width="250px" height="350px" xmlns="http://www.w3.org/2000/svg">
  <defs>
    <clipPath id="clipPath18" clipPathUnits="userSpaceOnUse">
      <path id="path16" d="M 0,500 H 500 V 0 H 0 Z"/>
    </clipPath>
    <clipPath id="clipPath30" clipPathUnits="userSpaceOnUse">
      <path id="path28" d="M 0,500 H 500 V 0 H 0 Z"/>
    </clipPath>
  </defs>
  <g transform="matrix(1.333333, 0, 0, -1.333333, 0, 666.666687)" id="g10">
    <g id="g12">
      <g clip-path="url(#clipPath18)" id="g14">
        <g id="text22" style="font-variant:normal;font-weight:300;font-stretch:normal;font-size:18px;font-family:'Proxima Nova Light';-inkscape-font-specification:ProximaNova-Light;writing-mode:lr-tb;fill:#231f20;fill-opacity:1;fill-rule:nonzero;stroke:none" transform="matrix(1,0,0,-1,0,533.0093)" aria-label="Stacked Logo Color On Black">
          <path id="path72" style="" d="m 9.6328125,-12.691406 v 1.731445 q -1.0107422,-0.483398 -1.9072266,-0.720703 -0.8964843,-0.237305 -1.7314453,-0.237305 -1.4501953,0 -2.2412109,0.5625 -0.7822266,0.5625 -0.7822266,1.5996096 0,0.8701172 0.5185547,1.3183594 0.5273438,0.4394531 1.9863281,0.7119141 l 1.0722657,0.2197265 q 1.9863281,0.3779297 2.9267578,1.3359375 0.9492186,0.9492188 0.9492186,2.5488281 0,1.9072266 -1.283203,2.89160161 -1.2744141,0.984375 -3.7441406,0.984375 -0.9316407,0 -1.9863281,-0.2109375 -1.0458985,-0.2109375 -2.1708985,-0.62402343 V -2.4082031 q 1.0810547,0.6064453 2.1181641,0.9140625 1.0371093,0.3076172 2.0390625,0.3076172 1.5205078,0 2.3466797,-0.5976563 0.8261718,-0.5976562 0.8261718,-1.7050781 0,-0.9667969 -0.5976562,-1.5117188 Q 7.3828125,-5.5458984 6.0292969,-5.8183594 L 4.9482422,-6.0292969 q -1.9863281,-0.3955078 -2.8740234,-1.2392578 -0.8876954,-0.84375 -0.8876954,-2.3466797 0,-1.7402346 1.2216797,-2.7421876 1.2304688,-1.001953 3.3837891,-1.001953 0.9228515,0 1.8808594,0.166992 0.9580078,0.166992 1.9599609,0.500977 z"/>
          <path id="path74" style="" d="m 13.411899,-12.638672 v 2.794922 h 3.331054 v 1.2568359 h -3.331054 v 5.34375 q 0,1.2041016 0.325195,1.546875 0.333984,0.3427735 1.344726,0.3427735 h 1.661133 V 0 H 15.08182 Q 13.20975,0 12.497836,-0.69433594 11.785922,-1.3974609 11.785922,-3.2431641 v -5.34375 H 10.599399 V -9.84375 h 1.186523 v -2.794922 z"/>
          <path id="path76" style="" d="m 21.235922,-4.9482422 q -1.959961,0 -2.71582,0.4482422 -0.75586,0.4482422 -0.75586,1.5292969 0,0.8613281 0.5625,1.3710937 0.571289,0.5009766 1.546875,0.5009766 1.344727,0 2.15332,-0.9492188 0.817383,-0.9580078 0.817383,-2.540039 v -0.3603516 z m 3.225586,-0.6679687 V 0 H 22.84432 v -1.4941406 q -0.553711,0.89648435 -1.379883,1.32714841 -0.826171,0.421875 -2.021484,0.421875 -1.511719,0 -2.408203,-0.84375 -0.887695,-0.85253901 -0.887695,-2.27636721 0,-1.6611328 1.107422,-2.5048828 1.11621,-0.84375 3.322265,-0.84375 h 2.267578 v -0.1582031 q 0,-1.1162109 -0.738281,-1.7226563 -0.729492,-0.6152343 -2.056641,-0.6152343 -0.84375,0 -1.643554,0.2021484 -0.799805,0.2021484 -1.538086,0.6064453 v -1.4941406 q 0.887695,-0.3427735 1.722656,-0.5097656 0.834961,-0.1757816 1.625977,-0.1757816 2.135742,0 3.190429,1.1074222 1.054688,1.1074219 1.054688,3.3574219 z"/>
          <path id="path78" style="" d="m 33.224274,-9.4658203 v 1.5117187 q -0.685547,-0.3779297 -1.379883,-0.5625 -0.685547,-0.1933593 -1.388672,-0.1933593 -1.573242,0 -2.443359,1.0019531 -0.870118,0.9931641 -0.870118,2.7949219 0,1.8017578 0.870118,2.8037109 0.870117,0.9931641 2.443359,0.9931641 0.703125,0 1.388672,-0.1845703 0.694336,-0.1933594 1.379883,-0.5712891 v 1.49414061 q -0.676758,0.31640625 -1.40625,0.47460938 -0.720703,0.15820312 -1.538086,0.15820312 -2.223633,0 -3.533203,-1.39746091 -1.309571,-1.397461 -1.309571,-3.7705078 0,-2.4082032 1.31836,-3.788086 1.327148,-1.3798831 3.629882,-1.3798831 0.747071,0 1.458985,0.1582034 0.711914,0.1494141 1.379883,0.4570313 z"/>
          <path id="path80" style="" d="m 34.970764,-13.675781 h 1.625977 v 8.0771482 L 41.421936,-9.84375 h 2.06543 L 38.266663,-5.2382812 43.707092,0 H 41.597717 L 36.596741,-4.8076172 V 0 h -1.625977 z"/>
          <path id="path82" style="" d="m 52.14621,-5.3261719 v 0.7910157 h -7.435547 q 0.105469,1.6699218 1.001953,2.5488281 0.905273,0.8701172 2.513672,0.8701172 0.93164,0 1.801758,-0.2285157 0.878906,-0.2285156 1.740234,-0.6855468 v 1.52929684 q -0.870117,0.36914062 -1.78418,0.5625 -0.914062,0.19335937 -1.854492,0.19335937 -2.355469,0 -3.735351,-1.37109371 -1.371094,-1.3710938 -1.371094,-3.7089844 0,-2.4169922 1.300781,-3.8320313 1.30957,-1.4238284 3.524414,-1.4238284 1.986328,0 3.137695,1.2832034 1.160157,1.2744141 1.160157,3.4716797 z m -1.617188,-0.4746093 q -0.01758,-1.3271485 -0.74707,-2.1181641 -0.720703,-0.7910156 -1.916016,-0.7910156 -1.353515,0 -2.170898,0.7646484 -0.808594,0.7646484 -0.931641,2.1533203 z"/>
          <path id="path84" style="" d="m 60.409828,-8.3496094 v -5.3261716 h 1.617188 V 0 h -1.617188 v -1.4765625 q -0.509765,0.87890625 -1.291992,1.30957031 -0.773438,0.421875 -1.863281,0.421875 -1.78418,0 -2.90918,-1.42382811 -1.116211,-1.4238281 -1.116211,-3.7441406 0,-2.3203125 1.116211,-3.7441407 1.125,-1.4238284 2.90918,-1.4238284 1.089843,0 1.863281,0.4306644 0.782227,0.421875 1.291992,1.3007812 z m -5.510742,3.4365235 q 0,1.7841796 0.729492,2.8037109 0.738281,1.0107422 2.021485,1.0107422 1.283203,0 2.021484,-1.0107422 0.738281,-1.0195313 0.738281,-2.8037109 0,-1.7841797 -0.738281,-2.7949219 -0.738281,-1.0195313 -2.021484,-1.0195313 -1.283204,0 -2.021485,1.0195313 -0.729492,1.0107422 -0.729492,2.7949219 z"/>
          <path id="path86" style="" d="m 68.942604,-13.12207 h 1.775391 v 11.6279294 h 6.389648 V 0 h -8.165039 z"/>
          <path id="path88" style="" d="m 81.290741,-8.7099609 q -1.300781,0 -2.056641,1.0195312 -0.755859,1.0107422 -0.755859,2.7773438 0,1.7666015 0.74707,2.7861328 0.75586,1.0107422 2.06543,1.0107422 1.291992,0 2.047852,-1.0195313 0.755859,-1.0195312 0.755859,-2.7773437 0,-1.7490235 -0.755859,-2.7685547 -0.75586,-1.0283203 -2.047852,-1.0283203 z m 0,-1.3710941 q 2.109375,0 3.313477,1.3710941 1.204101,1.3710937 1.204101,3.796875 0,2.4169921 -1.204101,3.796875 -1.204102,1.37109371 -3.313477,1.37109371 -2.118164,0 -3.322266,-1.37109371 -1.195312,-1.3798829 -1.195312,-3.796875 0,-2.4257813 1.195312,-3.796875 1.204102,-1.3710941 3.322266,-1.3710941 z"/>
          <path id="path90" style="" d="m 94.231827,-5.0361328 q 0,-1.7578125 -0.729492,-2.7246094 -0.720704,-0.9667969 -2.030274,-0.9667969 -1.300781,0 -2.030273,0.9667969 -0.720703,0.9667969 -0.720703,2.7246094 0,1.7490234 0.720703,2.7158203 0.729492,0.9667969 2.030273,0.9667969 1.30957,0 2.030274,-0.9667969 0.729492,-0.9667969 0.729492,-2.7158203 z m 1.617187,3.8144531 q 0,2.5136719 -1.116211,3.7353516 -1.116211,1.2304687 -3.418945,1.2304687 -0.852539,0 -1.608398,-0.1318359 Q 88.9496,3.4892578 88.237686,3.2255859 V 1.6523437 q 0.711914,0.3867188 1.40625,0.5712891 0.694336,0.1845703 1.415039,0.1845703 1.590821,0 2.381836,-0.8349609 0.791016,-0.82617189 0.791016,-2.50488283 V -1.7314453 Q 93.73085,-0.86132813 92.948624,-0.43066406 92.166397,0 91.076553,0 q -1.810547,0 -2.917968,-1.3798828 -1.107422,-1.3798828 -1.107422,-3.65625 0,-2.2851563 1.107422,-3.6650391 1.107421,-1.3798831 2.917968,-1.3798831 1.089844,0 1.872071,0.4306644 0.782226,0.430664 1.283203,1.3007812 V -9.84375 h 1.617187 z"/>
          <path id="path92" style="" d="m 101.82874,-8.7099609 q -1.30078,0 -2.056638,1.0195312 -0.755859,1.0107422 -0.755859,2.7773438 0,1.7666015 0.74707,2.7861328 0.755857,1.0107422 2.065427,1.0107422 1.292,0 2.04785,-1.0195313 0.75586,-1.0195312 0.75586,-2.7773437 0,-1.7490235 -0.75586,-2.7685547 -0.75585,-1.0283203 -2.04785,-1.0283203 z m 0,-1.3710941 q 2.10938,0 3.31348,1.3710941 1.2041,1.3710937 1.2041,3.796875 0,2.4169921 -1.2041,3.796875 -1.2041,1.37109371 -3.31348,1.37109371 -2.118161,0 -3.322263,-1.37109371 -1.195312,-1.3798829 -1.195312,-3.796875 0,-2.4257813 1.195312,-3.796875 1.204102,-1.3710941 3.322263,-1.3710941 z"/>
          <path id="path94" style="" d="m 122.85078,-12.111328 v 1.87207 q -0.89649,-0.834961 -1.91602,-1.248047 -1.01074,-0.413086 -2.15332,-0.413086 -2.25,0 -3.44531,1.379883 -1.19531,1.3710939 -1.19531,3.9726564 0,2.5927735 1.19531,3.9726563 1.19531,1.3710937 3.44531,1.3710937 1.14258,0 2.15332,-0.4130859 1.01953,-0.4130859 1.91602,-1.2480469 v 1.8544922 q -0.93164,0.63281251 -1.97754,0.94921876 -1.03711,0.31640625 -2.19727,0.31640625 -2.97949,0 -4.69336,-1.81933591 -1.71386,-1.828125 -1.71386,-4.9833985 0,-3.1640625 1.71386,-4.9833984 1.71387,-1.828125 4.69336,-1.828125 1.17774,0 2.21485,0.316406 1.04589,0.307617 1.95996,0.931641 z"/>
          <path id="path96" style="" d="m 128.86474,-8.7099609 q -1.30078,0 -2.05664,1.0195312 -0.75586,1.0107422 -0.75586,2.7773438 0,1.7666015 0.74707,2.7861328 0.75586,1.0107422 2.06543,1.0107422 1.29199,0 2.04785,-1.0195313 0.75586,-1.0195312 0.75586,-2.7773437 0,-1.7490235 -0.75586,-2.7685547 -0.75586,-1.0283203 -2.04785,-1.0283203 z m 0,-1.3710941 q 2.10937,0 3.31348,1.3710941 1.2041,1.3710937 1.2041,3.796875 0,2.4169921 -1.2041,3.796875 -1.20411,1.37109371 -3.31348,1.37109371 -2.11817,0 -3.32227,-1.37109371 -1.19531,-1.3798829 -1.19531,-3.796875 0,-2.4257813 1.19531,-3.796875 1.2041,-1.3710941 3.32227,-1.3710941 z"/>
          <path id="path98" style="" d="m 135.32829,-13.675781 h 1.61719 V 0 h -1.61719 z"/>
          <path id="path100" style="" d="m 142.99474,-8.7099609 q -1.30079,0 -2.05664,1.0195312 -0.75586,1.0107422 -0.75586,2.7773438 0,1.7666015 0.74707,2.7861328 0.75586,1.0107422 2.06543,1.0107422 1.29199,0 2.04785,-1.0195313 0.75586,-1.0195312 0.75586,-2.7773437 0,-1.7490235 -0.75586,-2.7685547 -0.75586,-1.0283203 -2.04785,-1.0283203 z m 0,-1.3710941 q 2.10937,0 3.31347,1.3710941 1.2041,1.3710937 1.2041,3.796875 0,2.4169921 -1.2041,3.796875 -1.2041,1.37109371 -3.31347,1.37109371 -2.11817,0 -3.32227,-1.37109371 -1.19531,-1.3798829 -1.19531,-3.796875 0,-2.4257813 1.19531,-3.796875 1.2041,-1.3710941 3.32227,-1.3710941 z"/>
          <path id="path102" style="" d="m 155.16238,-8.3320313 q -0.27246,-0.1582031 -0.59765,-0.2285156 -0.31641,-0.079102 -0.70313,-0.079102 -1.37109,0 -2.10937,0.8964843 -0.72949,0.8876954 -0.72949,2.5576172 V 0 h -1.62598 v -9.84375 h 1.62598 v 1.5292969 q 0.50976,-0.8964844 1.32714,-1.3271485 0.81739,-0.4394534 1.98633,-0.4394534 0.16699,0 0.36914,0.02637 0.20215,0.01758 0.44824,0.061524 z"/>
          <path id="path104" style="" d="m 165.22278,-11.917969 q -1.9336,0 -3.07617,1.441406 -1.13379,1.4414067 -1.13379,3.9287114 0,2.4785157 1.13379,3.9199219 1.14257,1.4414063 3.07617,1.4414063 1.93359,0 3.05859,-1.4414063 1.13379,-1.4414062 1.13379,-3.9199219 0,-2.4873047 -1.13379,-3.9287114 -1.125,-1.441406 -3.05859,-1.441406 z m 0,-1.441406 q 2.75976,0 4.41211,1.854492 1.65234,1.8457033 1.65234,4.9570314 0,3.1025391 -1.65234,4.9570313 -1.65235,1.84570311 -4.41211,1.84570311 -2.76856,0 -4.42969,-1.84570311 -1.65234,-1.8457031 -1.65234,-4.9570313 0,-3.1113281 1.65234,-4.9570314 1.66113,-1.854492 4.42969,-1.854492 z"/>
          <path id="path106" style="" d="M 181.76091,-5.9414062 V 0 h -1.61719 v -5.8886719 q 0,-1.3974609 -0.54492,-2.0917968 -0.54492,-0.694336 -1.63476,-0.694336 -1.30958,0 -2.06543,0.834961 -0.75586,0.8349609 -0.75586,2.2763671 V 0 h -1.62598 v -9.84375 h 1.62598 v 1.5292969 q 0.58007,-0.8876953 1.3623,-1.3271485 0.79102,-0.4394534 1.81934,-0.4394534 1.69629,0 2.5664,1.0546878 0.87012,1.0458985 0.87012,3.084961 z"/>
          <path id="path108" style="" d="m 189.806,-6.2666016 v 4.8076172 h 2.84766 q 1.43261,0 2.11816,-0.5888672 0.69434,-0.5976562 0.69434,-1.8193359 0,-1.2304687 -0.69434,-1.8105469 -0.68555,-0.5888672 -2.11816,-0.5888672 z m 0,-5.3964844 v 3.9550782 h 2.62793 q 1.30078,0 1.93359,-0.4833985 0.6416,-0.4921875 0.6416,-1.4941406 0,-0.9931641 -0.6416,-1.4853511 -0.63281,-0.492188 -1.93359,-0.492188 z m -1.77539,-1.458984 h 4.53516 q 2.03027,0 3.1289,0.84375 1.09863,0.84375 1.09863,2.3994137 0,1.2041016 -0.5625,1.9160157 -0.5625,0.711914 -1.65234,0.8876953 1.30957,0.28125 2.03027,1.1777344 0.7295,0.8876953 0.7295,2.2236328 0,1.7578125 -1.19532,2.71582029 Q 194.9476,0 192.74155,0 h -4.71094 z"/>
          <path id="path110" style="" d="m 199.01228,-13.675781 h 1.61719 V 0 h -1.61719 z"/>
          <path id="path112" style="" d="m 207.33792,-4.9482422 q -1.95996,0 -2.71582,0.4482422 -0.75586,0.4482422 -0.75586,1.5292969 0,0.8613281 0.5625,1.3710937 0.57129,0.5009766 1.54688,0.5009766 1.34472,0 2.15332,-0.9492188 0.81738,-0.9580078 0.81738,-2.540039 v -0.3603516 z m 3.22559,-0.6679687 V 0 h -1.61719 v -1.4941406 q -0.55371,0.89648435 -1.37988,1.32714841 -0.82618,0.421875 -2.02149,0.421875 -1.51172,0 -2.4082,-0.84375 -0.8877,-0.85253901 -0.8877,-2.27636721 0,-1.6611328 1.10743,-2.5048828 1.11621,-0.84375 3.32226,-0.84375 h 2.26758 v -0.1582031 q 0,-1.1162109 -0.73828,-1.7226563 -0.72949,-0.6152343 -2.05664,-0.6152343 -0.84375,0 -1.64356,0.2021484 -0.7998,0.2021484 -1.53808,0.6064453 v -1.4941406 q 0.88769,-0.3427735 1.72265,-0.5097656 0.83496,-0.1757816 1.62598,-0.1757816 2.13574,0 3.19043,1.1074222 1.05469,1.1074219 1.05469,3.3574219 z"/>
          <path id="path114" style="" d="m 219.32628,-9.4658203 v 1.5117187 q -0.68555,-0.3779297 -1.37988,-0.5625 -0.68555,-0.1933593 -1.38868,-0.1933593 -1.57324,0 -2.44336,1.0019531 -0.87011,0.9931641 -0.87011,2.7949219 0,1.8017578 0.87011,2.8037109 0.87012,0.9931641 2.44336,0.9931641 0.70313,0 1.38868,-0.1845703 0.69433,-0.1933594 1.37988,-0.5712891 v 1.49414061 q -0.67676,0.31640625 -1.40625,0.47460938 -0.7207,0.15820312 -1.53809,0.15820312 -2.22363,0 -3.5332,-1.39746091 -1.30957,-1.397461 -1.30957,-3.7705078 0,-2.4082032 1.31836,-3.788086 1.32715,-1.3798831 3.62988,-1.3798831 0.74707,0 1.45899,0.1582034 0.71191,0.1494141 1.37988,0.4570313 z"/>
          <path id="path116" style="" d="m 221.07277,-13.675781 h 1.62598 v 8.0771482 l 4.82519,-4.2451172 h 2.06543 l -5.2207,4.6054688 L 229.8091,0 h -2.10938 l -5.00097,-4.8076172 V 0 h -1.62598 z"/>
        </g>
      </g>
    </g>
    <g id="g24">
      <g clip-path="url(#clipPath30)" id="g26">
        <g transform="translate(198.7409,163.2094)" id="g32">
          <path id="path34" style="fill:#ffffff;fill-opacity:1;fill-rule:nonzero;stroke:none" d="m 0,0 c -0.47,0 -0.92,0.048 -1.347,0.14 -2.541,0.541 -4.242,2.63 -4.242,5.449 h -4.092 c 0,-4.894 3.493,-8.494 8.334,-8.977 0.367,-0.036 0.741,-0.054 1.122,-0.054 3.044,0 5.564,1.097 7.21,3.118 L 4.391,2.071 C 3.218,0.698 1.746,0 0,0 m 4.391,9.132 2.594,2.395 C 5.84,12.915 4.271,13.869 2.407,14.321 1.592,14.519 0.719,14.62 -0.2,14.62 c -0.39,0 -0.773,-0.018 -1.147,-0.057 v -3.524 c 0.427,0.091 0.877,0.139 1.347,0.139 1.746,0 3.218,-0.699 4.391,-2.046"/>
        </g>
        <g transform="translate(254.093,177.1303)" id="g36">
          <path id="path38" style="fill:#ffffff;fill-opacity:1;fill-rule:nonzero;stroke:none" d="m 0,0 h -4.029 l -7.857,-17.627 h 4.18 l 1.561,3.776 h 0.04 l 1.288,3.098 h -0.017 l 2.794,6.749 0.015,-0.034 0.004,0.01 5.654,-13.599 h 4.249 z"/>
        </g>
        <g transform="translate(233.2209,177.2592)" id="g40">
          <path id="path42" style="fill:#ffffff;fill-opacity:1;fill-rule:nonzero;stroke:none" d="m 0,0 v -17.756 h -4.109 v 7.279 h -8.067 v -7.279 h -4.109 V 0 h 4.109 v -7.001 h 8.067 V 0 Z"/>
        </g>
        <g transform="translate(275.7273,173.9106)" id="g44">
          <path id="path46" style="fill:#ffffff;fill-opacity:1;fill-rule:nonzero;stroke:none" d="M 0,0 H -5.682 V 3.349 H 9.792 V 0 H 4.109 V -14.407 H 0 Z"/>
        </g>
        <g transform="translate(297.3669,173.9106)" id="g48">
          <path id="path50" style="fill:#ffffff;fill-opacity:1;fill-rule:nonzero;stroke:none" d="M 0,0 H -5.682 V 3.349 H 9.791 V 0 H 4.109 V -14.407 H 0 Z"/>
        </g>
        <g transform="translate(281.1921,147.8969)" id="g52">
          <path id="path54" style="fill:#f1972e;fill-opacity:1;fill-rule:nonzero;stroke:none" d="m 0,0 c 0,-1.856 -1.432,-3.556 -4.562,-3.556 -1.542,0 -3.13,0.425 -4.2,1.18 l 0.991,1.951 c 0.834,-0.63 1.998,-0.991 3.146,-0.991 1.274,0 2.061,0.519 2.061,1.416 0,0.833 -0.614,1.353 -2.061,1.353 H -5.789 V 3.036 L -3.524,5.6 h -4.687 v 2.045 h 7.708 V 5.993 L -2.989,3.161 C -1.007,2.847 0,1.62 0,0"/>
        </g>
        <g transform="translate(310.9397,147.9906)" id="g56">
          <path id="path58" style="fill:#f1972e;fill-opacity:1;fill-rule:nonzero;stroke:none" d="m 0,0 c 0,-1.95 -1.432,-3.649 -4.578,-3.649 -1.526,0 -3.13,0.424 -4.2,1.179 l 1.007,1.951 c 0.834,-0.629 1.982,-0.991 3.13,-0.991 1.274,0 2.061,0.534 2.061,1.432 0,0.865 -0.566,1.432 -2.564,1.432 H -7.96 l 0.566,6.197 h 6.718 V 5.506 H -5.27 L -5.443,3.414 h 0.897 C -1.29,3.414 0,1.951 0,0"/>
        </g>
        <g transform="translate(293.865,147.8803)" id="g60">
          <path id="path62" style="fill:#f1972e;fill-opacity:1;fill-rule:nonzero;stroke:none" d="M 0,0 C 0,1.007 -0.739,1.652 -1.872,1.652 -2.989,1.652 -3.775,0.96 -3.775,0 c 0,-0.943 0.708,-1.636 1.935,-1.636 1.085,0 1.84,0.63 1.84,1.636 m 2.47,0.126 c 0,-2.249 -1.841,-3.665 -4.169,-3.665 -3.036,0 -4.924,1.903 -4.924,5.459 0,3.807 2.297,5.931 5.616,5.931 1.165,0 2.297,-0.268 3.068,-0.756 L 1.117,5.223 c -0.614,0.409 -1.322,0.55 -2.061,0.55 -1.84,0 -3.02,-1.085 -3.099,-3.193 0.645,0.646 1.573,0.976 2.722,0.976 2.123,0 3.791,-1.353 3.791,-3.43"/>
        </g>
        <g transform="translate(249.4729,164.7455)" id="g64">
          <path id="path66" style="fill:#f1b72c;fill-opacity:1;fill-rule:nonzero;stroke:none" d="M 0,0 2.597,5.527 5.236,0 Z"/>
        </g>
        <g transform="translate(274.7375,301.3378)" id="g68">
          <path id="path70" style="fill:#f1972e;fill-opacity:1;fill-rule:nonzero;stroke:none" d="m 0,0 c -5.442,6.251 -12.273,9.495 -20.378,9.495 -2.181,0 -4.271,-0.222 -6.252,-0.645 v 16.356 c 1.738,0.177 3.516,0.267 5.326,0.267 4.263,0 8.313,-0.473 12.096,-1.39 8.655,-2.096 15.934,-6.524 21.25,-12.967 z m -21.42,-58.356 c -1.77,0 -3.507,0.086 -5.21,0.256 -22.467,2.239 -38.674,18.949 -38.674,41.658 h 18.989 c 0,-13.085 7.895,-22.777 19.685,-25.291 1.981,-0.424 4.071,-0.645 6.252,-0.645 8.105,0 14.936,3.24 20.378,9.61 L 12.042,-43.883 C 4.4,-53.262 -7.293,-58.356 -21.42,-58.356 m 69.272,70.249 c 0.025,6.372 -1.622,12.054 -5.935,16.849 -0.222,0.223 -0.444,0.446 -0.667,0.67 -0.095,0.117 -0.19,0.234 -0.286,0.351 -0.24,0.207 -0.481,0.414 -0.721,0.621 -0.525,0.47 -1.051,0.939 -1.576,1.408 -0.589,0.4 -1.179,0.801 -1.769,1.202 -0.648,0.351 -1.296,0.701 -1.944,1.052 -0.452,0.312 -0.904,0.624 -1.356,0.936 L 33.558,35 c -1.874,1.058 -3.747,2.117 -5.62,3.175 -0.168,0.085 -0.335,0.17 -0.503,0.255 -0.351,0.23 -0.702,0.46 -1.053,0.69 -0.412,0.221 -0.825,0.442 -1.238,0.662 -0.274,0.167 -0.547,0.334 -0.821,0.501 -0.513,0.321 -1.018,0.658 -1.542,0.961 -11.852,6.841 -23.676,13.735 -35.573,20.497 -7.371,4.19 -15.052,4.722 -22.576,0.581 -10.153,-5.588 -20.146,-11.47 -30.189,-17.258 -6.334,-3.649 -12.57,-7.47 -18.965,-11.008 -8.138,-4.501 -12.6,-11.309 -12.687,-20.545 -0.18,-19.11 -0.128,-38.223 -0.018,-57.334 0.045,-7.683 3.194,-14.099 9.565,-18.464 4.926,-3.374 10.216,-6.223 15.392,-9.222 11.942,-6.917 23.875,-13.852 35.89,-20.643 7.211,-4.075 14.723,-4.369 22.137,-0.577 4.742,2.425 9.289,5.231 13.909,7.893 10.104,5.821 20.222,11.619 30.285,17.509 3.505,2.052 7.165,3.999 10.226,6.612 5.25,4.478 7.648,10.501 7.649,17.427 0.003,18.393 -0.046,36.788 0.026,55.181"/>
        </g>
      </g>
    </g>
  </g>
</svg>